# Blender v3.6.5 OBJ File: ''
# www.blender.org
o concerthall
v -5.500000 0.000000 0.000000
v -5.500000 2.500000 -2.500000
v -5.500000 -2.500000 -2.500000
v -5.500000 -2.500000 0.000000
v -5.500000 2.500000 -0.000000
v -4.500000 -2.500000 0.000000
v -4.500000 -2.500000 -2.500000
v -4.500000 2.500000 -2.500000
v -4.500000 0.000000 0.000000
v -4.500000 2.500000 -0.000000
v -3.500000 -2.500000 -2.500000
v -3.500000 -2.500000 0.650288
v -3.500000 2.500000 -2.500000
v -3.000000 -2.875000 0.975432
v -3.000000 0.000000 0.975432
v -3.500000 2.500000 0.650288
v -3.000000 2.875000 0.975431
v -3.500000 -2.500000 -3.000000
v -3.500000 2.500000 -3.000000
v -3.000000 -2.875000 -3.000000
v -3.000000 -2.875000 0.000000
v 3.333333 -4.125000 -3.000000
v 4.700000 -3.000000 -3.000000
v 4.000000 -4.625000 -3.000000
v -3.000000 -2.575000 -3.000000
v -1.666667 2.875000 -3.000000
v -1.000000 -2.575000 -3.000000
v 0.500000 -3.000000 -3.000000
v 1.000000 -3.375000 -3.000000
v -1.000000 -3.375000 -3.000000
v -3.000000 2.875000 -3.000000
v -1.000000 3.375000 -3.000000
v 1.000000 3.375000 -3.000000
v 0.500000 3.000000 -3.000000
v 4.700000 3.000000 -3.000000
v 5.500000 5.000000 -3.000000
v 2.000000 -4.125000 -3.000000
v 2.000000 4.125000 -3.000000
v 3.333333 4.125000 -3.000000
v 4.000000 4.625000 -3.000000
v 5.500000 -5.000000 -3.000000
v 5.000000 -4.625000 -3.000000
v 5.000000 4.625000 -3.000000
v -3.000000 -3.775000 0.000000
v -3.000000 -3.775000 -3.000000
v -1.000000 -3.775000 0.000000
v -1.000000 -3.775000 -3.000000
v -1.666667 -2.875000 -3.000000
v -1.666667 -2.875000 0.000000
v -1.000000 -3.375000 0.000000
v -3.000000 -2.575000 0.000000
v -1.666667 -2.875000 1.900793
v -3.000000 -2.875000 1.175432
v -1.000000 -2.575000 0.000000
v -3.000000 0.000000 1.175432
v -1.000000 0.000000 2.263474
v -1.000000 -3.375000 2.263474
v -3.000000 2.875000 1.175432
v -1.666667 2.875000 1.900793
v -1.000000 3.375000 2.263474
v 1.000000 -3.375000 2.991468
v -1.000000 -3.375000 2.463474
v -1.000000 0.000000 2.463474
v 2.000000 0.000000 3.255464
v 2.000000 -4.125000 3.255465
v -1.000000 3.375000 2.463473
v 1.000000 3.375000 2.991467
v 2.000000 4.125000 3.255464
v 0.500000 -3.000000 -2.000000
v 0.500000 3.000000 -2.000000
v 4.700000 -3.000000 -2.000000
v 4.700000 3.000000 -2.000000
v 3.333333 -4.125000 3.828019
v 2.000000 -4.125000 3.455465
v 2.000000 0.000000 3.455464
v 4.000000 0.000001 4.014295
v 4.000000 -4.625000 4.014296
v 2.000000 4.125000 3.455464
v 3.333333 4.125000 3.828018
v 4.000000 4.625000 4.014295
v 5.000000 -4.625000 4.378485
v 4.000000 -4.625000 4.214296
v 4.000000 0.000001 4.214295
v 5.500000 -5.000000 4.460580
v 5.500000 0.000001 4.460579
v 4.000000 4.625000 4.214295
v 5.000000 4.625000 4.378484
v 5.500000 5.000000 4.460579
v 5.500000 -4.500000 1.730290
v 5.500000 -4.500000 -2.769710
v 5.500000 -4.500000 -0.769710
v 5.500000 -4.500000 4.230290
v 5.500000 4.500000 2.230289
v 5.500000 -4.500000 2.230290
v 5.500000 4.500000 1.730289
v 5.500000 -4.500000 -0.269710
v 5.500000 4.500000 4.230289
v 5.500000 4.500000 -0.769711
v 5.500000 4.500000 -0.269711
v 5.500000 4.500000 -2.769711
vn -1.0000 0.0000 0.0000
vn 0.0000 -1.0000 0.0000
vn 0.0000 -0.0000 -1.0000
vn 0.0000 0.0000 1.0000
vn 0.0000 1.0000 -0.0000
vn -0.5452 0.0000 0.8383
vn -0.6000 -0.8000 0.0000
vn -0.6000 0.8000 -0.0000
vn 1.0000 0.0000 0.0000
vn -0.4779 0.0000 0.8784
vn -0.2553 0.0000 0.9669
vn -0.2691 0.0000 0.9631
vn -0.1620 0.0000 0.9868
s 1
f 1//1 2//1 3//1
f 4//1 1//1 3//1
f 1//1 5//1 2//1
f 4//2 3//2 6//2
f 3//2 7//2 6//2
f 2//3 8//3 3//3
f 3//3 8//3 7//3
f 4//4 9//4 1//4
f 6//4 9//4 4//4
f 5//4 1//4 10//4
f 1//4 9//4 10//4
f 5//5 10//5 2//5
f 2//5 10//5 8//5
f 7//2 11//2 6//2
f 11//2 12//2 6//2
f 8//3 13//3 7//3
f 7//3 13//3 11//3
f 14//6 15//6 12//6
f 6//6 12//6 9//6
f 12//6 15//6 9//6
f 16//6 9//6 15//6
f 10//6 9//6 16//6
f 16//6 15//6 17//6
f 10//5 13//5 8//5
f 10//5 16//5 13//5
f 18//1 11//1 13//1
f 19//1 18//1 13//1
f 18//7 20//7 11//7
f 21//7 14//7 12//7
f 11//7 21//7 12//7
f 20//7 21//7 11//7
f 22//3 23//3 24//3
f 19//3 25//3 18//3
f 18//3 25//3 20//3
f 26//3 27//3 25//3
f 28//3 29//3 30//3
f 19//3 26//3 25//3
f 31//3 26//3 19//3
f 32//3 33//3 34//3
f 27//3 28//3 30//3
f 28//3 23//3 29//3
f 35//3 36//3 23//3
f 32//3 34//3 26//3
f 26//3 34//3 27//3
f 27//3 34//3 28//3
f 29//3 22//3 37//3
f 38//3 39//3 33//3
f 29//3 23//3 22//3
f 40//3 35//3 39//3
f 33//3 35//3 34//3
f 39//3 35//3 33//3
f 23//3 41//3 42//3
f 23//3 42//3 24//3
f 40//3 43//3 35//3
f 43//3 36//3 35//3
f 23//3 36//3 41//3
f 13//8 31//8 19//8
f 13//8 17//8 31//8
f 16//8 17//8 13//8
f 44//1 21//1 45//1
f 45//1 21//1 20//1
f 45//2 46//2 44//2
f 47//2 46//2 45//2
f 48//3 47//3 45//3
f 20//3 48//3 45//3
f 48//3 30//3 47//3
f 49//4 44//4 46//4
f 21//4 44//4 49//4
f 49//4 46//4 50//4
f 20//9 25//9 51//9
f 21//9 20//9 51//9
f 25//3 27//3 48//3
f 25//3 48//3 20//3
f 48//3 27//3 30//3
f 21//2 49//2 14//2
f 14//2 52//2 53//2
f 49//2 52//2 14//2
f 51//3 49//3 21//3
f 51//3 54//3 49//3
f 49//3 54//3 50//3
f 53//1 15//1 14//1
f 53//1 55//1 15//1
f 53//10 52//10 55//10
f 52//10 56//10 55//10
f 57//10 56//10 52//10
f 15//1 55//1 58//1
f 17//1 15//1 58//1
f 59//10 55//10 56//10
f 58//10 55//10 59//10
f 59//10 56//10 60//10
f 17//5 26//5 31//5
f 58//5 59//5 17//5
f 17//5 59//5 26//5
f 49//7 50//7 52//7
f 50//7 57//7 52//7
f 59//8 32//8 26//8
f 59//8 60//8 32//8
f 46//9 47//9 30//9
f 46//9 30//9 50//9
f 50//1 27//1 30//1
f 50//1 54//1 27//1
f 30//2 29//2 50//2
f 50//2 61//2 57//2
f 57//2 61//2 62//2
f 29//2 61//2 50//2
f 62//1 63//1 57//1
f 57//1 63//1 56//1
f 62//11 61//11 63//11
f 61//11 64//11 63//11
f 65//11 64//11 61//11
f 56//1 63//1 66//1
f 60//1 56//1 66//1
f 67//11 63//11 64//11
f 66//11 63//11 67//11
f 67//11 64//11 68//11
f 66//5 67//5 60//5
f 60//5 33//5 32//5
f 60//5 67//5 33//5
f 69//9 28//9 70//9
f 28//9 34//9 70//9
f 28//5 69//5 71//5
f 23//5 28//5 71//5
f 70//3 72//3 69//3
f 69//3 72//3 71//3
f 70//2 34//2 72//2
f 34//2 35//2 72//2
f 29//7 37//7 61//7
f 37//7 65//7 61//7
f 67//8 38//8 33//8
f 67//8 68//8 38//8
f 37//2 22//2 65//2
f 65//2 73//2 74//2
f 22//2 73//2 65//2
f 74//1 64//1 65//1
f 74//1 75//1 64//1
f 74//12 73//12 75//12
f 73//12 76//12 75//12
f 77//12 76//12 73//12
f 64//1 75//1 68//1
f 68//1 75//1 78//1
f 79//12 75//12 76//12
f 78//12 75//12 79//12
f 79//12 76//12 80//12
f 78//5 79//5 68//5
f 68//5 39//5 38//5
f 68//5 79//5 39//5
f 22//7 24//7 73//7
f 24//7 77//7 73//7
f 79//8 40//8 39//8
f 79//8 80//8 40//8
f 24//2 42//2 77//2
f 77//2 81//2 82//2
f 42//2 81//2 77//2
f 82//1 76//1 77//1
f 82//1 83//1 76//1
f 84//13 85//13 81//13
f 82//13 81//13 83//13
f 81//13 85//13 83//13
f 80//1 83//1 86//1
f 76//1 83//1 80//1
f 87//13 83//13 85//13
f 86//13 83//13 87//13
f 87//13 85//13 88//13
f 80//5 43//5 40//5
f 86//5 87//5 80//5
f 80//5 87//5 43//5
f 23//1 71//1 72//1
f 35//1 23//1 72//1
f 42//7 41//7 81//7
f 41//7 84//7 81//7
f 87//8 36//8 43//8
f 87//8 88//8 36//8
f 41//9 89//9 84//9
f 90//9 91//9 41//9
f 92//9 85//9 84//9
f 93//9 94//9 89//9
f 95//9 88//9 93//9
f 91//9 96//9 41//9
f 41//9 96//9 89//9
f 89//9 94//9 84//9
f 92//9 97//9 85//9
f 94//9 92//9 84//9
f 98//9 36//9 99//9
f 36//9 95//9 99//9
f 100//9 36//9 98//9
f 91//9 99//9 96//9
f 98//9 99//9 91//9
f 36//9 88//9 95//9
f 93//9 89//9 95//9
f 93//9 88//9 97//9
f 41//9 36//9 90//9
f 90//9 36//9 100//9
f 97//9 88//9 85//9
f 91//9 90//9 98//9
f 90//9 100//9 98//9
f 89//9 96//9 95//9
f 96//9 99//9 95//9
f 92//9 94//9 97//9
f 94//9 93//9 97//9
