# Blender v3.6.5 OBJ File: ''
# www.blender.org
mtllib test1room.mtl
o test1room.002
v -2.500000 -1.300000 2.000000
v -2.500000 1.300000 -2.000000
v -2.500000 -1.300000 -2.000000
v -2.500000 1.300000 2.000000
v 2.500000 1.300000 2.000000
v 2.500000 -1.300000 2.000000
v -2.100000 -1.300000 -1.000000
v -0.300000 -1.300000 0.400000
v 1.900000 -1.300000 1.200000
v -1.300000 -1.300000 1.000000
v -2.100000 -1.300000 1.000000
v -1.300000 -1.300000 -1.000000
v -0.900000 -1.300000 0.400000
v -0.800000 -1.300000 0.400000
v -0.400000 -1.300000 0.400000
v -0.300000 -1.300000 -0.300000
v 1.900000 -1.300000 -0.500000
v 1.900000 -1.300000 0.500000
v 2.300000 -1.300000 -1.200000
v 2.500000 -1.300000 -2.000000
v 2.300000 -1.300000 -0.800000
v -0.300000 -1.300000 -0.400000
v -0.900000 -1.300000 -0.300000
v -0.900000 -1.300000 0.300000
v -0.900000 -1.300000 -0.400000
v 1.900000 -1.300000 0.600000
v 2.000000 -1.300000 0.600000
v 1.900000 -1.300000 0.800000
v 2.300000 -1.300000 0.800000
v 2.300000 -1.300000 1.200000
v -0.800000 -1.300000 -0.400000
v -0.800000 -1.300000 -0.300000
v -0.800000 -1.300000 0.300000
v 2.000000 -1.300000 -0.500000
v 2.000000 -1.300000 0.500000
v -0.400000 -1.300000 -0.400000
v -0.400000 -1.300000 0.300000
v -0.400000 -1.300000 -0.300000
v -0.300000 -1.300000 0.300000
v 1.900000 -1.300000 -0.800000
v 2.000000 -1.300000 -0.600000
v 1.900000 -1.300000 -0.600000
v 2.300000 -1.300000 -0.600000
v 1.900000 -1.300000 -1.200000
v 2.200000 -1.300000 -0.600000
v 2.200000 -1.300000 0.600000
v 2.200000 -1.300000 0.500000
v 2.200000 -1.300000 -0.500000
v 2.300000 -1.300000 0.500000
v 2.300000 -1.300000 -0.500000
v 2.300000 -1.300000 0.600000
v 2.500000 1.300000 -2.000000
v -2.200000 -0.500000 -1.000000
v -2.200000 -0.500000 1.000000
v -2.100000 -0.900000 -1.000000
v -2.100000 -0.900000 1.000000
v -2.000000 -0.500000 -0.800000
v -2.000000 -0.500000 0.800000
v -1.400000 -0.500000 1.000000
v -1.400000 -0.500000 0.800000
v -1.400000 -0.500000 -1.000000
v -1.400000 -0.500000 -0.800000
v -1.300000 -0.900000 1.000000
v -1.300000 -0.900000 -1.000000
v -1.900000 -0.900000 -0.800000
v -1.900000 -0.900000 0.800000
v -1.300000 -0.900000 0.800000
v -1.300000 -0.900000 -0.800000
v -0.900000 -0.900000 -0.400000
v -0.900000 -0.800000 -0.600000
v -0.900000 -0.900000 -0.300000
v -0.900000 -0.900000 0.600000
v -0.900000 -0.900000 0.400000
v -0.900000 -0.800000 0.600000
v -0.900000 -0.900000 0.300000
v -0.900000 -0.900000 -0.600000
v -0.300000 -0.800000 0.600000
v -0.300000 -0.900000 0.600000
v -0.800000 -0.900000 0.300000
v -0.800000 -0.900000 -0.300000
v -0.800000 -0.900000 0.400000
v -0.400000 -0.900000 -0.300000
v -0.400000 -0.900000 0.300000
v -0.300000 -0.900000 -0.300000
v -0.300000 -0.900000 0.300000
v -0.800000 -0.900000 -0.400000
v -0.300000 -0.900000 -0.600000
v -0.400000 -0.900000 -0.400000
v -0.400000 -0.900000 0.400000
v -0.300000 -0.900000 0.400000
v -0.300000 -0.900000 -0.400000
v -0.300000 -0.800000 -0.600000
v 1.900000 -0.300000 1.200000
v 1.900000 -0.300000 0.800000
v 2.300000 -0.300000 1.200000
v 2.300000 -0.300000 0.800000
v 1.900000 -1.050000 -0.600000
v 1.900000 -1.000000 -0.700000
v 1.900000 -1.050000 -0.500000
v 1.900000 -1.050000 0.700000
v 1.900000 -1.050000 0.600000
v 1.900000 -1.000000 0.700000
v 1.900000 -1.050000 0.500000
v 1.900000 -1.050000 -0.700000
v 2.300000 -1.000000 0.700000
v 2.300000 -1.050000 0.700000
v 2.200000 -1.050000 0.600000
v 2.200000 -1.050000 -0.600000
v 2.300000 -1.050000 -0.700000
v 2.000000 -1.050000 0.500000
v 2.000000 -1.050000 -0.500000
v 2.000000 -1.050000 0.600000
v 2.200000 -1.050000 -0.500000
v 2.200000 -1.050000 0.500000
v 2.000000 -1.050000 -0.600000
v 2.300000 -1.050000 -0.600000
v 2.300000 -1.050000 0.500000
v 2.300000 -1.050000 -0.500000
v 2.300000 -1.050000 0.600000
v 2.300000 -1.000000 -0.700000
v 1.900000 -0.300000 -0.800000
v 1.900000 -0.300000 -1.200000
v 2.300000 -0.300000 -0.800000
v 2.300000 -0.300000 -1.200000
v 2.400000 -0.300000 0.600000
v 2.400000 -0.900000 0.600000
v 2.400000 -0.300000 -0.600000
v 2.400000 -0.900000 -0.600000
v 2.500000 -0.300000 0.600000
v 2.500000 -0.900000 0.600000
v 2.500000 -0.900000 -0.600000
v 2.500000 -0.300000 -0.600000
vn -1.0000 0.0000 0.0000
vn 0.0000 0.0000 1.0000
vn -0.0000 -1.0000 0.0000
vn 0.0000 1.0000 -0.0000
vn 0.0000 -0.0000 -1.0000
vn 0.9701 0.2425 -0.0000
vn 1.0000 0.0000 0.0000
vn -0.9701 -0.2425 0.0000
usemtl Default_OBJ.001
s 1
f 1//1 2//1 3//1
f 4//1 2//1 1//1
f 1//2 5//2 4//2
f 6//2 5//2 1//2
f 3//3 7//3 1//3
f 8//3 9//3 10//3
f 1//3 7//3 11//3
f 3//3 12//3 7//3
f 11//3 10//3 1//3
f 13//3 14//3 10//3
f 14//3 15//3 10//3
f 16//3 17//3 18//3
f 15//3 8//3 10//3
f 19//3 20//3 21//3
f 22//3 17//3 16//3
f 10//3 23//3 24//3
f 10//3 24//3 13//3
f 10//3 12//3 23//3
f 12//3 25//3 23//3
f 26//3 27//3 28//3
f 29//3 6//3 30//3
f 12//3 31//3 25//3
f 23//3 32//3 24//3
f 24//3 32//3 33//3
f 18//3 34//3 35//3
f 12//3 36//3 31//3
f 33//3 37//3 14//3
f 14//3 37//3 15//3
f 32//3 38//3 33//3
f 33//3 38//3 37//3
f 31//3 36//3 32//3
f 32//3 36//3 38//3
f 9//3 6//3 10//3
f 12//3 22//3 36//3
f 38//3 16//3 37//3
f 37//3 16//3 39//3
f 10//3 6//3 1//3
f 17//3 34//3 18//3
f 8//3 28//3 9//3
f 16//3 18//3 39//3
f 8//3 26//3 28//3
f 39//3 18//3 8//3
f 8//3 18//3 26//3
f 40//3 41//3 42//3
f 21//3 20//3 43//3
f 22//3 42//3 17//3
f 3//3 20//3 12//3
f 22//3 40//3 42//3
f 12//3 44//3 22//3
f 22//3 44//3 40//3
f 40//3 45//3 41//3
f 30//3 6//3 9//3
f 12//3 20//3 44//3
f 46//3 29//3 28//3
f 27//3 46//3 28//3
f 35//3 47//3 27//3
f 27//3 47//3 46//3
f 34//3 48//3 35//3
f 35//3 48//3 47//3
f 41//3 45//3 34//3
f 34//3 45//3 48//3
f 6//3 49//3 50//3
f 44//3 20//3 19//3
f 51//3 6//3 29//3
f 46//3 51//3 29//3
f 48//3 50//3 47//3
f 47//3 50//3 49//3
f 40//3 21//3 45//3
f 45//3 21//3 43//3
f 49//3 6//3 51//3
f 6//3 50//3 20//3
f 43//3 20//3 50//3
f 2//4 4//4 52//4
f 4//4 5//4 52//4
f 3//5 2//5 52//5
f 20//5 3//5 52//5
f 53//6 54//6 55//6
f 54//6 56//6 55//6
f 53//3 57//3 54//3
f 58//3 59//3 54//3
f 54//3 57//3 58//3
f 58//3 60//3 59//3
f 53//3 61//3 57//3
f 57//3 61//3 62//3
f 54//5 59//5 56//5
f 59//5 63//5 56//5
f 53//2 55//2 61//2
f 61//2 55//2 64//2
f 11//7 55//7 56//7
f 7//7 55//7 11//7
f 56//5 63//5 11//5
f 11//5 63//5 10//5
f 7//2 64//2 55//2
f 12//2 64//2 7//2
f 57//8 65//8 58//8
f 58//8 65//8 66//8
f 58//2 66//2 60//2
f 60//2 66//2 67//2
f 57//5 62//5 65//5
f 62//5 68//5 65//5
f 65//3 68//3 66//3
f 66//3 68//3 67//3
f 60//8 67//8 59//8
f 59//8 67//8 63//8
f 61//8 68//8 62//8
f 61//8 64//8 68//8
f 63//1 67//1 10//1
f 68//1 12//1 10//1
f 67//1 68//1 10//1
f 68//1 64//1 12//1
f 69//7 70//7 71//7
f 72//7 73//7 74//7
f 73//7 75//7 74//7
f 74//7 75//7 71//7
f 74//7 71//7 70//7
f 76//7 70//7 69//7
f 74//5 77//5 72//5
f 72//5 77//5 78//5
f 75//4 79//4 80//4
f 73//4 72//4 81//4
f 71//4 75//4 80//4
f 82//4 83//4 84//4
f 83//4 85//4 84//4
f 76//4 69//4 86//4
f 76//4 86//4 87//4
f 86//4 88//4 87//4
f 79//4 81//4 83//4
f 81//4 89//4 83//4
f 80//4 79//4 82//4
f 79//4 83//4 82//4
f 86//4 80//4 88//4
f 80//4 82//4 88//4
f 81//4 72//4 78//4
f 89//4 81//4 78//4
f 89//4 78//4 90//4
f 88//4 91//4 87//4
f 70//3 92//3 74//3
f 74//3 92//3 77//3
f 13//7 75//7 73//7
f 24//7 75//7 13//7
f 73//5 81//5 13//5
f 13//5 81//5 14//5
f 24//2 79//2 75//2
f 33//2 79//2 24//2
f 23//7 69//7 71//7
f 25//7 69//7 23//7
f 71//5 80//5 23//5
f 23//5 80//5 32//5
f 25//2 86//2 69//2
f 31//2 86//2 25//2
f 76//2 92//2 70//2
f 87//2 92//2 76//2
f 81//1 79//1 14//1
f 14//1 79//1 33//1
f 80//1 86//1 32//1
f 32//1 86//1 31//1
f 15//7 83//7 89//7
f 37//7 83//7 15//7
f 89//5 90//5 15//5
f 15//5 90//5 8//5
f 37//2 85//2 83//2
f 39//2 85//2 37//2
f 38//7 88//7 82//7
f 36//7 88//7 38//7
f 82//5 84//5 38//5
f 38//5 84//5 16//5
f 36//2 91//2 88//2
f 22//2 91//2 36//2
f 77//1 92//1 84//1
f 84//1 92//1 91//1
f 77//1 90//1 78//1
f 77//1 84//1 85//1
f 77//1 85//1 90//1
f 91//1 92//1 87//1
f 90//1 85//1 8//1
f 8//1 85//1 39//1
f 84//1 91//1 16//1
f 16//1 91//1 22//1
f 93//7 9//7 94//7
f 9//7 28//7 94//7
f 93//5 95//5 9//5
f 9//5 95//5 30//5
f 94//3 96//3 93//3
f 93//3 96//3 95//3
f 28//2 96//2 94//2
f 29//2 96//2 28//2
f 97//7 98//7 99//7
f 100//7 101//7 102//7
f 101//7 103//7 102//7
f 102//7 103//7 99//7
f 102//7 99//7 98//7
f 104//7 98//7 97//7
f 102//5 105//5 100//5
f 100//5 105//5 106//5
f 107//4 100//4 106//4
f 104//4 108//4 109//4
f 103//4 110//4 111//4
f 101//4 100//4 112//4
f 99//4 103//4 111//4
f 111//4 110//4 113//4
f 110//4 114//4 113//4
f 104//4 97//4 115//4
f 104//4 115//4 108//4
f 108//4 116//4 109//4
f 112//4 100//4 107//4
f 110//4 112//4 114//4
f 112//4 107//4 114//4
f 114//4 117//4 118//4
f 113//4 114//4 118//4
f 115//4 111//4 108//4
f 111//4 113//4 108//4
f 107//4 106//4 119//4
f 98//3 120//3 102//3
f 102//3 120//3 105//3
f 26//7 103//7 101//7
f 18//7 103//7 26//7
f 101//5 112//5 26//5
f 26//5 112//5 27//5
f 18//2 110//2 103//2
f 35//2 110//2 18//2
f 17//7 97//7 99//7
f 42//7 97//7 17//7
f 99//5 111//5 17//5
f 17//5 111//5 34//5
f 42//2 115//2 97//2
f 41//2 115//2 42//2
f 104//2 120//2 98//2
f 109//2 120//2 104//2
f 121//7 40//7 122//7
f 40//7 44//7 122//7
f 121//5 123//5 40//5
f 40//5 123//5 21//5
f 122//3 124//3 121//3
f 121//3 124//3 123//3
f 44//2 124//2 122//2
f 19//2 124//2 44//2
f 112//1 110//1 27//1
f 27//1 110//1 35//1
f 111//1 115//1 34//1
f 34//1 115//1 41//1
f 46//7 114//7 107//7
f 47//7 114//7 46//7
f 107//5 119//5 46//5
f 46//5 119//5 51//5
f 47//2 117//2 114//2
f 49//2 117//2 47//2
f 48//7 108//7 113//7
f 45//7 108//7 48//7
f 113//5 118//5 48//5
f 48//5 118//5 50//5
f 45//2 116//2 108//2
f 43//2 116//2 45//2
f 95//1 96//1 30//1
f 30//1 96//1 29//1
f 105//1 120//1 118//1
f 118//1 120//1 116//1
f 105//1 119//1 106//1
f 105//1 118//1 117//1
f 105//1 117//1 119//1
f 116//1 120//1 109//1
f 119//1 117//1 51//1
f 51//1 117//1 49//1
f 118//1 116//1 50//1
f 50//1 116//1 43//1
f 123//1 124//1 21//1
f 21//1 124//1 19//1
f 125//7 126//7 127//7
f 126//7 128//7 127//7
f 125//5 129//5 126//5
f 126//5 129//5 130//5
f 126//4 131//4 128//4
f 130//4 131//4 126//4
f 127//3 132//3 125//3
f 125//3 132//3 129//3
f 128//2 132//2 127//2
f 131//2 132//2 128//2
f 5//7 6//7 129//7
f 6//7 130//7 129//7
f 5//7 129//7 132//7
f 132//7 131//7 20//7
f 130//7 6//7 131//7
f 132//7 20//7 52//7
f 5//7 132//7 52//7
f 131//7 6//7 20//7
